<?xml version="1.0" encoding="UTF-8" standalone="no"?>
<svg
   xmlns:dc="http://purl.org/dc/elements/1.1/"
   xmlns:cc="http://creativecommons.org/ns#"
   xmlns:rdf="http://www.w3.org/1999/02/22-rdf-syntax-ns#"
   xmlns:svg="http://www.w3.org/2000/svg"
   xmlns="http://www.w3.org/2000/svg"
   xmlns:sodipodi="http://sodipodi.sourceforge.net/DTD/sodipodi-0.dtd"
   xmlns:inkscape="http://www.inkscape.org/namespaces/inkscape"
   width="24"
   height="24"
   viewBox="0 0 24 24"
   fill="none"
   version="1.1"
   id="svg4"
   sodipodi:docname="arrow_down_icon_152930.svg"
   inkscape:version="0.92.5 (2060ec1f9f, 2020-04-08)">
  <metadata
     id="metadata10">
    <rdf:RDF>
      <cc:Work
         rdf:about="">
        <dc:format>image/svg+xml</dc:format>
        <dc:type
           rdf:resource="http://purl.org/dc/dcmitype/StillImage" />
      </cc:Work>
    </rdf:RDF>
  </metadata>
  <defs
     id="defs8" />
  <sodipodi:namedview
     pagecolor="#ffffff"
     bordercolor="#666666"
     borderopacity="1"
     objecttolerance="10"
     gridtolerance="10"
     guidetolerance="10"
     inkscape:pageopacity="0"
     inkscape:pageshadow="2"
     inkscape:window-width="1920"
     inkscape:window-height="1052"
     id="namedview6"
     showgrid="false"
     inkscape:zoom="39.333333"
     inkscape:cx="11.845917"
     inkscape:cy="8.9996991"
     inkscape:window-x="0"
     inkscape:window-y="0"
     inkscape:window-maximized="1"
     inkscape:current-layer="svg4" />
  <path
     style="opacity:1;fill:#ffffff;fill-opacity:1;stroke-width:0.02542373"
     d="m 10.809219,22.389097 c -0.07099,-0.02519 -0.185396,-0.08758 -0.254238,-0.138635 -0.06884,-0.05106 -1.727847,-1.698086 -3.6866793,-3.660058 -3.3895948,-3.395028 -3.5650498,-3.575199 -3.6347736,-3.732476 -0.098064,-0.221204 -0.104355,-0.54415 -0.014981,-0.768983 0.1627658,-0.409458 0.647092,-0.680847 1.0761911,-0.603036 0.3266109,0.05922 0.2161609,-0.04202 3.1287205,2.86785 l 2.7139833,2.711472 1.53e-4,-7.804923 c 1.01e-4,-4.9439996 0.0092,-7.8603607 0.02491,-7.9561644 0.0524,-0.3200327 0.261082,-0.5945964 0.55968,-0.7363878 0.150428,-0.071432 0.188063,-0.078472 0.419492,-0.078472 0.22263,0 0.272311,0.00847 0.399611,0.068137 0.203679,0.095464 0.38579,0.2744518 0.484516,0.4762074 l 0.08197,0.16752 0.0066,7.9316118 0.0066,7.931612 2.713782,-2.710032 c 2.953479,-2.949397 2.804953,-2.814292 3.156033,-2.870832 0.414903,-0.06682 0.843368,0.160487 1.033862,0.548473 0.06829,0.139087 0.07474,0.175246 0.07474,0.419167 0,0.465647 0.364333,0.05957 -3.74747,4.176875 -4.100542,4.106032 -3.749812,3.787482 -4.184064,3.800168 -0.170009,0.005 -0.262933,-0.0052 -0.358554,-0.03909 z"
     id="path817"
     inkscape:connector-curvature="0" />
</svg>
