<?xml version="1.0" encoding="UTF-8" standalone="no"?>
<!-- Generator: Adobe Illustrator 23.1.0, SVG Export Plug-In . SVG Version: 6.00 Build 0)  -->

<svg
   xmlns:dc="http://purl.org/dc/elements/1.1/"
   xmlns:cc="http://creativecommons.org/ns#"
   xmlns:rdf="http://www.w3.org/1999/02/22-rdf-syntax-ns#"
   xmlns:svg="http://www.w3.org/2000/svg"
   xmlns="http://www.w3.org/2000/svg"
   xmlns:sodipodi="http://sodipodi.sourceforge.net/DTD/sodipodi-0.dtd"
   xmlns:inkscape="http://www.inkscape.org/namespaces/inkscape"
   version="1.1"
   id="svg2"
   inkscape:version="0.92.5 (2060ec1f9f, 2020-04-08)"
   sodipodi:docname="new_globe.svg"
   x="0px"
   y="0px"
   viewBox="0 0 469.48857 448.07615"
   xml:space="preserve"
   width="124.21883mm"
   height="118.55347mm"><metadata
   id="metadata432"><rdf:RDF><cc:Work
       rdf:about=""><dc:format>image/svg+xml</dc:format><dc:type
         rdf:resource="http://purl.org/dc/dcmitype/StillImage" /><dc:title></dc:title></cc:Work></rdf:RDF></metadata><defs
   id="defs430" /><sodipodi:namedview
   pagecolor="#ffffff"
   bordercolor="#666666"
   borderopacity="1"
   objecttolerance="10"
   gridtolerance="10"
   guidetolerance="10"
   inkscape:pageopacity="0"
   inkscape:pageshadow="2"
   inkscape:window-width="1920"
   inkscape:window-height="1052"
   id="namedview428"
   showgrid="false"
   units="mm"
   inkscape:pagecheckerboard="false"
   inkscape:zoom="1.6025134"
   inkscape:cx="309.15108"
   inkscape:cy="242.41233"
   inkscape:window-x="0"
   inkscape:window-y="0"
   inkscape:window-maximized="1"
   inkscape:current-layer="svg2" />
<g
   id="g3320"
   transform="translate(2.6944831,50.076086)">
	<g
   id="g334">
		<g
   id="g310">
			<path
   d="m 35.8,244 1.2,1 c -1.3,-9 -2,-18.8 0.6,-27.4 3.9,-13.8 8.8,-27.2 11.3,-41.5 2,-11.1 4.3,-23.6 3,-34.3 -1.5,5.8 -3,11.5 -6.2,16.5 -12.1,18.7 -24.5,40.7 -16,64.5 -0.2,0.3 -0.5,0.6 -0.8,0.4 -3.4,-7.9 -4.2,-16.8 -6.4,-25.2 -5.9,-22.3 -23,-41 -18,-66.8 -2.7,5.6 -3.7,11.9 -5.1,18 -3,15.8 0,32.5 4.3,47.1 5.3,18.1 23,31.1 32.1,47.7 z"
   id="path294"
   inkscape:connector-curvature="0" />
			<path
   d="m 31.2,128.2 c 4,-8.2 10.5,-16 18.3,-21.8 17.2,-13 36,-29.8 36.3,-51.8 C 80,70.4 62.7,77 51.2,87.8 45.1,93.5 40.4,100.4 37.7,107.6 l -0.4,-0.3 c 1.4,-6.4 4.1,-12.1 6,-18.3 5,-16.8 4.1,-36.9 20.5,-48.2 C 55.4,43 48.3,48.4 42,55.4 v 0 C 28.7,70.1 29.9,91.8 31.6,111 c 0.6,6 0.3,11.1 -0.4,17.2 z"
   id="path296"
   inkscape:connector-curvature="0" />
			<path
   d="M 51.2,80.3 C 60.4,71.7 71,65.3 78.8,55.1 88.1,42.8 96.2,29 108.4,18.4 c -16.5,6.4 -34.3,13 -45,30 -6.3,9.9 -7.3,21.6 -12.2,31.9 z"
   id="path298"
   inkscape:connector-curvature="0" />
			<path
   d="m 58.1,123.8 c 4,-8.1 6.5,-17.3 7.6,-26.2 -1.5,3.8 -3.8,7.3 -7,10.3 -13.4,12.7 -29.1,25.1 -32.1,43.1 -0.4,2.6 -0.7,5.2 -1.4,7.7 -0.6,0.3 -0.6,-0.4 -0.8,-0.6 l 1.7,-22.2 c 1.6,-21.7 -9.8,-45.8 2.7,-64.9 -0.4,-0.1 -0.7,0.3 -1,0.4 -11.4,14.5 -19,30.5 -19,50 0,24.1 13.9,41 15.6,63.6 3.6,-23.6 23.4,-40.4 33.7,-61.2 z"
   id="path300"
   inkscape:connector-curvature="0" />
			<path
   d="m 31.6,271.9 c 12.9,10.2 28.3,18.1 40.1,27.1 -2.3,-5.9 -6.1,-11.3 -7.6,-17.4 -6.9,-27.9 -3.1,-60.3 -15,-86.1 2.2,14.7 -3.6,27.7 -4.9,41.7 -1.1,11.5 0.9,22.7 5.4,32.3 1.3,2.9 3.7,5.4 4.4,8.4 -4.3,-3.9 -7.4,-8.8 -10.3,-13.6 -13.9,-22.5 -43,-37.1 -45,-64.5 v 0 c -1,12.2 0.1,25.1 4.1,35.9 5.5,14.8 16.3,26.3 28.8,36.2 z"
   id="path302"
   inkscape:connector-curvature="0" />
			<path
   d="m 207,345.8 c -22.5,0 -42.7,10.9 -62.4,19.1 -17.9,7.4 -41.6,6 -57.5,-5 7.8,9.8 18.3,15.9 29.2,20 20.1,8 43.6,1.9 60.8,-9.1 12.3,-7.9 22.9,-19.1 37.6,-19.1 23.7,0 48.6,24.3 69.9,46.3 3.3,-2.7 6.8,-5.5 9.5,-8.6 -22.3,-21.2 -53.8,-43.6 -87.1,-43.6 z"
   id="path304"
   inkscape:connector-curvature="0" />
			<path
   d="m 166.8,348.2 c 3.5,-0.9 7.7,-0.6 10.9,-1.8 -13.4,-2.7 -26.3,-6.8 -36.7,-16.3 -14.9,-13.6 -28.1,-28.1 -44,-38.7 12.5,16.8 16,41.2 38.8,49.7 4,1.5 8.7,1.8 12.2,4 -4.4,0.7 -8.2,-0.7 -12.3,-1.6 -29.4,-6.3 -65.2,1.8 -87.2,-23.2 8.3,16.4 25.5,29.3 42.1,34.7 25.5,8.6 52.2,-0.9 76.2,-6.8 z"
   id="path306"
   inkscape:connector-curvature="0" />
			<path
   d="M 117.6,335.9 C 98.5,320.5 95.6,297.4 87.1,277.2 81.8,264.6 73.2,253.3 64,242.3 c 10.1,20.2 5.7,46.2 18.8,65.2 4.1,6 9.8,11.7 15.1,16.4 l -0.2,0.3 C 92.9,322 88.6,318.6 84.2,315 61.3,295.9 26.8,293.5 13.1,262.4 v 0 c 3.7,22.8 21.8,43 41.4,55.8 18.6,12.2 42.5,10.9 63.1,17.7 z"
   id="path308"
   inkscape:connector-curvature="0" />
		</g>
		<g
   id="g332">
			<path
   d="m 383.7,55.1 c 7.8,10.3 18.4,16.6 27.6,25.2 -4.9,-10.3 -5.9,-22 -12.1,-31.9 -10.7,-17 -28.5,-23.6 -45,-30 12,10.6 20.1,24.3 29.5,36.7 z"
   id="path312"
   inkscape:connector-curvature="0" />
			<path
   d="m 419.2,89 c 1.8,6.1 4.5,11.9 6,18.3 l -0.4,0.3 c -2.7,-7.2 -7.4,-14.1 -13.5,-19.8 -11.5,-10.9 -28.8,-17.4 -34.5,-33.3 0.3,22.1 19.1,38.9 36.3,51.8 7.7,5.8 14.3,13.6 18.3,21.8 -0.7,-6.1 -1,-11.2 -0.4,-17.1 1.8,-19.3 2.9,-40.9 -10.3,-55.6 v 0 c -6.3,-7 -13.4,-12.5 -21.8,-14.6 16.2,11.3 15.3,31.4 20.3,48.2 z"
   id="path314"
   inkscape:connector-curvature="0" />
			<path
   d="m 436.4,135.8 1.7,22.2 c -0.2,0.2 -0.2,0.8 -0.8,0.6 -0.7,-2.5 -1,-5.1 -1.4,-7.7 -3,-17.9 -18.8,-30.4 -32.1,-43.1 -3.2,-3 -5.5,-6.5 -7,-10.3 1.1,8.9 3.6,18.1 7.6,26.2 10.3,20.8 30.1,37.6 33.7,61.3 1.7,-22.7 15.6,-39.5 15.6,-63.6 0,-19.5 -7.6,-35.5 -19,-50 -0.3,-0.2 -0.6,-0.5 -1,-0.4 12.5,19.1 1,43.2 2.7,64.8 z"
   id="path316"
   inkscape:connector-curvature="0" />
			<path
   d="m 440,197.9 c -2.2,8.4 -3,17.4 -6.4,25.2 -0.3,0.2 -0.6,-0.2 -0.8,-0.4 8.5,-23.8 -3.9,-45.7 -16,-64.5 -3.2,-4.9 -4.7,-10.7 -6.2,-16.5 -1.3,10.8 1,23.2 3,34.3 2.6,14.3 7.4,27.7 11.3,41.5 2.6,8.6 1.9,18.3 0.6,27.4 l 1.2,-1 c 9,-16.6 26.8,-29.6 32.2,-47.8 4.3,-14.5 7.3,-31.3 4.3,-47.1 v 0 c -1.4,-6.1 -2.5,-12.4 -5.1,-18 4.9,25.9 -12.2,44.6 -18.1,66.9 z"
   id="path318"
   inkscape:connector-curvature="0" />
			<path
   d="m 317.8,364.9 c -19.8,-8.2 -39.9,-19.1 -62.4,-19.1 -33.2,0 -64.8,22.5 -86.9,43.6 2.7,3.1 6.2,6 9.5,8.6 21.2,-21.9 46.2,-46.3 69.9,-46.3 14.7,0 25.3,11.2 37.6,19.1 17.1,10.9 40.6,17.1 60.8,9.1 10.8,-4.1 21.3,-10.2 29.2,-20 -16,10.9 -39.8,12.4 -57.7,5 z"
   id="path320"
   inkscape:connector-curvature="0" />
			<polygon
   points=""
   id="polygon322" />
			<path
   d="m 418.9,264.1 c -3,4.8 -6,9.8 -10.3,13.6 0.7,-2.9 3.1,-5.5 4.4,-8.4 4.5,-9.7 6.5,-20.8 5.4,-32.3 -1.4,-14 -7.2,-27 -4.9,-41.7 -12,25.8 -8.1,58.2 -15,86.1 -1.5,6.2 -5.3,11.6 -7.6,17.4 11.8,-9 27.2,-16.9 40.1,-27.1 12.5,-9.8 23.3,-21.4 29,-36.4 4.1,-10.8 5.1,-23.7 4.1,-35.9 -2.1,27.6 -31.3,42.2 -45.2,64.7 z"
   id="path324"
   inkscape:connector-curvature="0" />
			<path
   d="m 378.1,315 c -4.4,3.6 -8.7,7 -13.5,9.2 l -0.2,-0.3 c 5.3,-4.8 11,-10.5 15.1,-16.4 13.1,-19 8.7,-45.1 18.8,-65.2 -9.2,11 -17.8,22.3 -23.1,34.9 -8.5,20.2 -11.4,43.3 -30.5,58.7 20.6,-6.8 44.5,-5.5 63,-17.6 19.5,-12.8 37.6,-33 41.4,-55.8 -13.6,31 -48,33.4 -71,52.5 z"
   id="path326"
   inkscape:connector-curvature="0" />
			<polygon
   points=""
   id="polygon328" />
			<path
   d="m 326.8,343.6 c -4.1,0.9 -7.9,2.2 -12.3,1.6 3.5,-2.2 8.1,-2.5 12.2,-4 22.8,-8.6 26.3,-33 38.8,-49.7 -15.9,10.6 -29.1,25.1 -44,38.7 -10.4,9.5 -23.3,13.5 -36.7,16.3 3.2,1.2 7.4,0.9 10.9,1.8 24.1,6 50.7,15.4 76.3,6.9 16.5,-5.5 33.7,-18.4 42.1,-34.7 -22.1,24.9 -58,16.9 -87.3,23.1 z"
   id="path330"
   inkscape:connector-curvature="0" />
		</g>
	</g>
	<path
   d="m 231.2,2.2 c -91,0 -165,74 -165,165 0,91 74,165 165,165 91,0 165,-74 165,-165 0,-91 -74,-165 -165,-165 z m 0,196.5 c -17.4,0 -31.5,-14.1 -31.5,-31.5 0,-17.4 14.1,-31.5 31.5,-31.5 17.4,0 31.5,14.1 31.5,31.5 0,17.4 -14.1,31.5 -31.5,31.5 z m 23.7,-58 c -5.8,-5.2 -13.3,-8.5 -21.6,-9 v -27 c 15.7,0.5 30,6.8 40.7,16.9 z m -25.7,-9 c -8.3,0.5 -15.8,3.8 -21.6,9 l -19.1,-19.1 c 10.7,-10.1 25,-16.4 40.7,-16.9 z m -24.4,11.9 c -5.2,5.8 -8.5,13.3 -9,21.6 h -27 c 0.5,-15.7 6.8,-30 16.9,-40.7 z m -9,25.6 c 0.5,8.3 3.8,15.8 9,21.6 l -19.1,19.1 c -10.1,-10.7 -16.4,-25 -16.9,-40.7 z m 11.8,24.5 c 5.8,5.2 13.3,8.5 21.6,9 v 27 c -15.7,-0.5 -30,-6.8 -40.7,-16.9 z m 25.6,8.9 c 8.3,-0.5 15.8,-3.8 21.6,-9 l 19.1,19.1 c -10.7,10.1 -25,16.4 -40.7,16.9 z m 24.5,-11.8 c 5.2,-5.8 8.5,-13.3 9,-21.6 h 27 c -0.5,15.7 -6.8,30 -16.9,40.7 z m 9,-25.6 c -0.5,-8.3 -3.8,-15.8 -9,-21.6 l 19.1,-19.1 c 10.1,10.7 16.4,25 16.9,40.7 z m 10.1,-46.4 C 265.3,108 250.1,101.2 233.2,100.7 v -30 c 25.1,0.5 47.9,10.7 64.8,26.9 z m -47.6,-18.1 c -16.8,0.5 -32.1,7.3 -43.6,18.1 L 164.4,97.6 c 16.9,-16.2 39.7,-26.4 64.8,-26.9 z m -46.4,20.9 c -10.8,11.5 -17.6,26.7 -18.1,43.6 h -30 c 0.5,-25.1 10.7,-47.9 26.9,-64.8 z m -18,47.6 c 0.5,16.8 7.3,32.1 18.1,43.6 L 161.6,234 c -16.2,-16.9 -26.4,-39.7 -26.9,-64.8 z m 20.9,46.4 c 11.5,10.8 26.7,17.6 43.6,18.1 v 30 C 204.2,263.2 181.4,253 164.5,236.8 Z m 47.5,18 c 16.8,-0.5 32.1,-7.3 43.6,-18.1 l 21.2,21.2 c -16.9,16.2 -39.7,26.4 -64.8,26.9 z m 46.4,-20.9 c 10.8,-11.5 17.6,-26.7 18.1,-43.6 h 30 c -0.5,25.1 -10.7,47.9 -26.9,64.8 z m 18.1,-47.5 c -0.5,-16.8 -7.3,-32.1 -18.1,-43.6 l 21.2,-21.2 c 16.2,16.9 26.4,39.7 26.9,64.8 z m 3.1,-70.4 C 283.2,77.9 259.4,67.3 233.2,66.8 V 40.2 c 33.5,0.5 63.9,14.1 86.3,35.8 z M 229.2,66.7 c -26.2,0.5 -50,11.1 -67.6,28 L 142.9,76 c 22.4,-21.7 52.8,-35.3 86.3,-35.8 z m -70.4,30.9 c -16.9,17.6 -27.5,41.4 -28,67.6 h -26.5 c 0.5,-33.5 14.1,-63.9 35.8,-86.3 z m -28,71.6 c 0.5,26.2 11.1,50 28,67.6 l -18.7,18.7 c -21.7,-22.4 -35.3,-52.8 -35.8,-86.3 z m 30.8,70.4 c 17.6,16.9 41.4,27.5 67.6,28 v 26.5 C 195.7,293.6 165.3,280 142.9,258.3 Z m 71.6,28.1 c 26.2,-0.5 50,-11.1 67.6,-28 l 18.7,18.7 c -22.4,21.7 -52.8,35.3 -86.3,35.8 z m 70.5,-30.9 c 16.9,-17.6 27.5,-41.4 28,-67.6 h 26.5 c -0.5,33.5 -14.1,63.9 -35.8,86.3 z m 28,-71.6 c -0.5,-26.2 -11.1,-50 -28,-67.6 l 18.7,-18.7 c 21.7,22.4 35.3,52.8 35.8,86.3 z m -9.3,-92 C 299.2,50.7 267.9,36.7 233.2,36.2 V 6.2 C 276.1,6.7 315,24.1 343.6,52 Z m -93.2,-37 c -34.6,0.5 -66,14.5 -89.2,37 L 118.9,52 C 147.5,24.1 186.4,6.7 229.3,6.2 v 30 z m -92,39.8 c -22.5,23.2 -36.5,54.5 -37,89.2 h -30 C 70.7,122.3 88.1,83.4 116,54.8 Z m -36.9,93.2 c 0.5,34.6 14.5,66 37,89.2 L 116,279.5 C 88.1,251 70.8,212.1 70.3,169.2 Z m 39.8,92 c 23.2,22.5 54.5,36.5 89.2,37 v 30 c -42.9,-0.5 -81.8,-17.9 -110.4,-45.8 z m 93.1,37 c 34.6,-0.5 66,-14.5 89.2,-37 l 21.2,21.2 c -28.6,27.9 -67.5,45.3 -110.4,45.8 z m 92,-39.9 c 22.5,-23.2 36.5,-54.5 37,-89.2 h 30 c -0.5,42.9 -17.9,81.8 -45.8,110.4 z m 37,-93.1 c -0.5,-34.6 -14.5,-66 -37,-89.2 l 21.2,-21.2 c 27.9,28.6 45.3,67.5 45.8,110.4 z"
   id="path336"
   inkscape:connector-curvature="0" />
	<g
   id="g424">
		<polygon
   id="polygon59"
   points="240.7,130.2 240.7,129 239.7,129.1 239.7,130.3 " />
		<rect
   id="rect61"
   x="238.2"
   y="127.4"
   width="1.3"
   height="1" />
		<polygon
   id="polygon63"
   points="235.9,126.1 235.8,127.1 237,127.3 237.1,126.3 " />
		<polygon
   id="rect65"
   points="235,125.7 234.8,126.7 233.7,126.6 233.8,125.6 " />
		<rect
   id="rect67"
   x="225.2"
   y="125.4"
   width="1.3"
   height="1" />
		<polygon
   id="polygon69"
   points="222.5,126.4 222.3,127.4 223.5,127.6 223.6,126.6 " />
		<polygon
   id="rect71"
   points="222.7,128 222.5,129 221.1,128.6 221.4,127.6 " />
		<polygon
   id="rect73"
   points="221.1,130 220.1,130.2 219.9,129.2 220.9,129 " />
		<polygon
   id="polygon75"
   points="90.4,233.4 89.1,232.9 89.1,232 88.3,232 88.3,233.7 89.6,233.7 89.6,235.9 90.6,235.9 " />
		<polygon
   id="polygon77"
   points="99.1,241 99.9,243.3 101.1,244.2 102.2,246.7 101.6,247.9 99.7,246.2 98.4,244.3 97.7,242.8 96.6,239.8 " />
		<polygon
   id="polygon79"
   points="137.6,293.6 136,293.1 135.8,291.6 134.5,289.6 136.5,289.9 138.6,291.7 139.5,293.9 138.3,294.6 " />
		<path
   id="path81"
   inkscape:connector-curvature="0"
   d="m 226.1,139.9 h -1.8 l -0.3,-3.7 1,-0.7 v -1.9 h -5.8 l -0.2,-1.9 0.8,-0.5 -1.3,-0.5 -1,1.3 -0.3,1.5 -1.7,0.3 v 0.8 h -1.2 v 2.2 l -4.7,3.9 -9.3,-0.3 c -0.7,1.5 -2.3,-0.2 -2.3,-0.2 -0.3,-1 -2.7,0 -2.7,0 0,1.9 -3.2,-0.8 -3.2,-0.8 l -5.8,-4.2 c -3.3,-3 -8.3,0.8 -8.5,1.7 0.2,2.4 -3.8,0.5 -3.8,0.5 0,0 -3.3,-1 -3.8,0.3 -0.5,1.3 -2.7,1 -2.7,1 l -0.3,0.7 -1.7,0.3 -0.3,1 -2,0.3 5,-0.2 c 1.3,-0.2 -0.5,2.9 -1.3,2.7 l -2.3,0.2 -0.8,0.8 h -2.2 l -1,1.4 -3.2,-0.2 c 0,0 -1.8,1.5 -1.7,2 0.2,0.5 -0.3,2 -0.8,2 -0.5,0 -1.5,1.5 -1.2,2 0.3,0.5 -1,2.2 -1,2.2 l -0.3,1.7 -1,0.3 v 4.6 l -2,1.4 v 2 l -3,3.2 0.3,2.7 -2.5,2.7 0.3,2.7 -1.5,0.5 -0.3,1.2 -0.7,3.5 1.7,0.2 c 0.8,-0.3 0.7,2.2 0,2.5 -0.7,0.3 -2.5,1 -1.5,1.7 1,0.7 -2.7,0.5 -2.7,-0.5 0,-1 -2,-1.9 -2.5,-1.5 -0.5,0.3 -1.3,-1.5 -1.3,-1.5 -1.8,-1.9 -7.5,0.2 -7.5,0.2 l -0.8,2.7 c -1.8,0.3 -3,3.4 -3,3.4 -1.5,0.5 -2.7,2.4 -2.2,2.9 0.5,0.5 -0.8,0.7 -0.8,0.7 v 3.7 l -0.8,1.2 0.2,4 c 1,0 0.8,1.9 0.8,1.9 -1.7,0.2 -1.3,2.4 -1.3,2.4 l -3.5,1.2 -0.7,1 -4.3,-0.2 -1.2,1.2 -1.2,-1.2 h -8.3 l -0.3,-0.8 -1.7,-0.3 -0.2,-1.9 -2.5,0.2 -0.5,1 -2.7,0.2 c 0.2,1.7 -2.7,4.2 -3,3.5 -0.3,-0.7 -2.2,-2.5 -1.3,-2.9 0.8,-0.3 3,-0.7 3,-0.7 v -1.2 l -6.2,-0.2 -0.7,1 -2.5,0.2 v 2.7 l -1.2,0.3 c -0.8,0.5 0.2,2.4 0.2,2.4 1.2,1.2 -0.2,3 -0.2,3 -1,1 0.8,2.9 0.8,2.9 1.3,0.3 -0.8,1.3 -0.8,1.3 0.3,1.7 1.3,2.2 1.3,2.2 -1,1.7 0.7,2.5 0.7,2.5 l 0.2,2.9 1.2,0.7 v 1.9 l 0.7,1.2 h 2.7 l -0.2,-4.2 c -2.3,-2.7 2,-3.4 2.2,-2.4 0.2,1 2,1.5 2,1.5 0.3,2.5 3.2,4 4,1.5 0.8,-2.5 1.5,-1 2,0.2 0.5,1.2 3.7,4.1 3.7,4.1 h 2.5 l 0.3,2.4 c 2.8,-0.2 3.7,0.2 4.8,4 1.2,3.9 4.3,4.9 4.3,4.9 l 2.3,-0.2 c 0,-2 2.3,0.3 2.3,1.4 0,1 4.5,4.9 4.5,4.9 l 4.5,1 4.2,3.4 3.2,-0.3 h 1.3 c 0.8,-2.9 4.8,0.2 5.2,1.2 0.3,1 3,2.7 3.3,1.9 0.3,-0.8 2.2,-0.3 2.5,2.2 0.3,2.5 1.5,2 1.5,2 l 9.5,-0.2 3.3,-2.9 8.5,-0.2 c 4.3,-0.2 1.7,-6.1 0.8,-6.1 -1.5,-1.2 0.5,-6.1 0.5,-6.1 L 159,231.2 c -2.8,0 -0.3,-4.1 -0.3,-4.1 2.2,-1.4 -0.5,-3.5 -0.5,-3.5 0.3,-2 -1.2,-4.4 -1.2,-4.4 -3,-2 -2.2,-5.9 -2.2,-5.9 v -2.7 c -2.5,-2.4 1,-2.7 1,-2.7 1.2,-2 -0.8,-3.5 -0.8,-3.5 l -0.2,-2.2 -2.7,-0.3 -0.3,-7.9 -6,-8.6 c -1.2,-0.3 -0.3,-2.4 -0.3,-2.4 1.5,-0.8 -0.3,-2.9 -0.3,-2.9 l -0.2,-3.7 3.5,-0.3 0.8,-1.3 h 1.7 l -0.2,-4.4 c 0.8,-2.2 2.8,-1 2.8,-1 l 2.3,0.2 1.3,-2.5 0.3,-2 -1.8,-0.2 c -2,-1.2 -1,-5.6 -1,-5.6 3.2,-4.7 6.8,-2 6.8,-2 l 2.3,-0.2 c 3.5,2.4 0.3,6.7 0.3,6.7 -0.7,1 -0.3,4.2 -0.3,4.2 l 0.8,5.4 -2.2,1.9 c -1.8,1 -1.8,3.4 0.2,3.9 1.3,0.2 0.8,3.4 -1.2,1.2 -3,0 1.7,2.7 0.3,2 3,1.5 2.3,-1.3 2.3,-1.3 l 4,-3.2 c 1.5,-1.2 4.2,2.5 4.2,3 0,0.5 6.6,0.2 6.6,0.2 1.8,1.2 2.5,4.2 2.5,4.2 1.8,-2.4 5.7,-0.2 2.8,1.2 2.7,1.7 2.7,3.2 2.7,3.2 2.2,-0.7 2.2,1 2.2,1.5 0,0.5 0.7,-2.5 0.7,-2.5 -2.5,-1.9 3.3,-2.5 1.7,0.8 l -1,1.5 1.7,1.3 0.2,3.9 c 3.7,-0.3 2.7,-4.9 2.7,-4.9 l 1.7,-0.3 c 0,-1.5 1.2,-0.7 1.2,-0.7 -1.2,-5.7 2.7,-6.7 2.7,-6.7 2.2,-0.5 2.3,-5.1 2.3,-5.1 -1.5,-0.7 -0.7,-3 1,-1 1.7,2 -1,-4.1 -1,-4.1 l -1.3,-1.2 -1.8,-0.2 -0.2,-1.9 h -3 l -0.5,2.4 -1.1,0.5 -0.3,-0.7 -0.5,1.9 h -3 l -0.2,-2 1.8,-0.5 0.7,-1 0.5,-2.7 h 2.2 l 2.8,-0.8 c 0.2,-2.9 1.7,-2.2 1.7,-2.2 l 1,0.8 1.5,1.2 0.2,1 -1,0.5 -0.2,1.4 0.5,1.9 h 1.3 c 0.5,-2.7 4,-2.7 5,-1 l 1,-2.4 c -2.3,-1.2 0,-3 0.6,-2.2 0.7,0.8 2.2,-2.2 2.2,-2.2 0,0 1.2,1.5 0,-0.5 -1.2,-2 0.8,-3 0.8,-3 -0.3,-2 2.2,-1.7 2.2,-1.7 l 0.2,-2.7 -2.3,-0.2 c -0.5,2.4 -2.5,0.3 -1.5,-0.2 1,-0.5 2,-1.5 2,-1.5 v -1.7 l 1,-0.3 0.2,-1.7 h 2.5 l 2.2,-1 0.5,-0.8 2.3,-0.2 3.3,-3 -0.3,-1.3 c -2,0 0,-1.5 0,-1.5 z" />
		<path
   id="path83"
   inkscape:connector-curvature="0"
   d="m 159.1,173.3 -3,-0.3 0.2,1.2 h 0.8 c 1.3,2.4 0.2,8.1 0.2,8.1 0,0 -2,0.2 -2.3,-0.8 -0.3,-1 -1.2,2.2 -0.5,2.7 0.7,0.5 3,0 3.2,1.9 0.2,1.9 1.5,-1.2 1.5,-1.2 z" />
		<polygon
   id="polygon85"
   points="157.7,188 156.1,187 156.1,191 158.7,194.6 159.7,192.2 160.1,190.7 158.9,190.2 159.1,187.7 160.1,187.5 160.2,186.3 " />
		<polygon
   id="polygon87"
   points="159.1,198.1 160.4,198.3 160.4,196.6 159.2,196.8 " />
		<polygon
   id="polygon89"
   points="157.5,206.6 158.9,206.4 158.9,205.2 157.5,205.4 " />
		<path
   id="path91"
   inkscape:connector-curvature="0"
   d="m 160.9,201.2 c 0.4,0 0.7,-0.3 0.7,-0.7 0,-0.4 -0.3,-0.7 -0.7,-0.7 -0.4,0 -0.7,0.3 -0.7,0.7 0,0.4 0.3,0.7 0.7,0.7 z" />
		
			<circle
   id="circle93"
   cx="162"
   cy="204"
   r="0.69999999">
		</circle>
		
			<circle
   id="circle95"
   cx="162.10001"
   cy="184.7"
   r="0.69999999">
		</circle>
		<polygon
   id="polygon97"
   points="212.1,172 213.8,171 215.8,170.6 216.6,169.6 216.9,167.6 217.1,166.1 217.8,165 219.8,164.2 219.8,161 218.8,161 218.6,159.8 216.8,159.6 216.4,160.5 215.6,160.5 215.4,161.8 216.4,161.8 216.6,162.9 215.9,163.5 215.6,164.4 214.3,164.7 211.3,167.6 211.1,168.9 210.3,170.1 209.3,172.6 205.8,172.8 205.1,175.8 205.6,178.4 208.6,179.6 208.9,177.9 209.9,177.4 210.1,175.7 210.8,174.5 211.8,173.3 " />
		<path
   id="path99"
   inkscape:connector-curvature="0"
   d="m 223.2,171.3 v -2.4 l -0.3,-2.2 -2.5,-1.2 -1.8,1.7 -0.3,2.4 v 1.5 l -1.7,0.3 -0.3,4.6 -1.3,0.5 0.2,1.7 -1.8,0.5 -1.8,0.5 -0.3,2.2 -1.3,0.8 -0.7,2 -0.8,4.9 c 0,0 1.5,2.9 2.3,1.5 0.8,-1.3 2.2,-1.5 2.2,-1.5 l 0.5,-1.2 4.5,0.2 c 0.3,-1.9 2.5,-1.2 2.5,-0.3 0,0.8 1.7,0.2 1.7,0.2 l 1.2,-1.9 h 1.8 l 0.2,-2 0.8,-0.5 v -3 c 2.7,-0.8 2.3,-3.4 2.3,-3.4 l 0.7,-0.8 -0.3,-1.2 c -1.3,-0.5 -0.7,-1.7 0.2,-1.4 0.8,0.3 -1.2,-1.5 -1.2,-1.5 -1,0.8 -1.8,-1 -1.8,-1 z" />
		<path
   id="path101"
   inkscape:connector-curvature="0"
   d="m 225.9,191.7 c -0.2,2 -2.7,2.7 -2.7,2.7 l -1.8,-0.5 -1,-0.8 -0.2,-2.4 1.5,-0.2 0.3,1 z" />
		<path
   id="path103"
   inkscape:connector-curvature="0"
   d="m 234.9,180.9 c 0.4,1.5 0.3,-2.4 1,-2.2 0.7,0.2 0.2,-2.4 0.2,-2.4 l -3,2.2 c 1.4,0.2 1.6,1.7 1.8,2.4 z" />
		<path
   id="path105"
   inkscape:connector-curvature="0"
   d="m 243.7,172.1 c 0.7,1.5 0.5,3.7 3,5.4 0.8,0.6 -0.5,1.7 -1.3,1.2 -0.8,-0.5 -3.2,-4.2 -3.2,-4.2 v -2.2 c 0.5,-1.3 1.2,-0.8 1.5,-0.2 z" />
		<polygon
   id="polygon107"
   points="244.9,222.6 243.7,223.4 244.2,223.9 244.7,224.8 245.8,222.9 " />
		<line
   id="line109"
   x1="239.5"
   y1="220.7"
   x2="239.5"
   y2="222.8" />
		<polygon
   id="polygon111"
   points="263,217.4 263.6,218.3 264.9,217.4 264.4,216.6 " />
		<path
   id="path113"
   inkscape:connector-curvature="0"
   d="m 311.7,253.5 1.5,0.7 0.2,2.9 c 2,2 8.5,0.3 8.5,-0.2 0,-0.5 -0.3,-6.2 -0.3,-6.2 l -0.8,-0.8 -0.2,-4.2 c 0.7,-2.2 -3.2,-5.4 -3.5,-4.7 -0.3,0.7 -2.5,0.2 -2.5,0.8 0,0.7 -1.3,4 -0.7,5.2 0.7,1.2 -0.5,1.2 -0.7,2.4 -0.2,1 -1.9,3 -1.5,4.1 z" />
		<path
   id="path115"
   inkscape:connector-curvature="0"
   d="m 308,246.7 c -0.3,1.3 -1.5,2 -2.2,1.5 -0.7,-0.5 0.8,0.8 1.2,1.5 0.3,0.7 1.3,0.7 1.7,0 0.3,-0.7 0.2,-2.2 0.5,-2.9 0.3,-0.6 -1,-0.8 -1.2,-0.1 z" />
		<rect
   id="rect117"
   x="300.29999"
   y="215.8"
   width="1.2"
   height="3.2" />
		<path
   id="path119"
   inkscape:connector-curvature="0"
   d="m 317.5,183.3 c -0.7,-1 3.3,-2.7 4,-0.7 0.7,2 0,1.7 -0.7,1.5 -0.6,-0.2 -2.3,0.5 -3.3,-0.8 z" />
		<polygon
   id="polygon123"
   points="322.9,161 321.1,160.7 320.9,161.7 322.7,162 " />
		<polygon
   id="polygon125"
   points="314.1,162.4 313.6,163.3 314.9,164.1 315.2,164.3 315.4,164.1 316.4,163.6 316.5,163.9 317.5,163.5 317.1,162.7 316.9,162.1 316.4,162.4 315.2,163.1 " />
		<path
   id="path127"
   inkscape:connector-curvature="0"
   d="m 322.7,122.5 h -2.5 c 0,0 0.8,0.3 -1.5,-1.9 -2.3,-2.2 -3.8,0.5 -3.8,0.5 l -2.7,0.3 v 2.7 l -1.3,0.5 0.2,1.7 1.8,-0.2 c 0,0 0,2 0.5,1.2 0.5,-0.8 4.7,0.2 4.3,2.2 -0.1,0.8 4.2,3 3.7,5.7 2.2,0.3 1.7,2.5 1.7,2.5 l 2.8,0.3 0.8,-1.7 0.8,0.2 v -1 l -1.8,-0.5 -0.3,-5.4 -1.2,-0.8 0.3,-1.4 -1.3,-0.5 0.7,-2.2 z" />
		<path
   id="path129"
   inkscape:connector-curvature="0"
   d="m 330,139.7 -1.3,-0.2 -3,0.5 -1.7,3.2 c 0,0 0.8,0.5 1.5,1.7 0.7,1.2 1,8.1 -1,9.3 -2,1.2 0.2,0.5 0.2,0.5 l -0.3,3.7 c 0.5,1.7 1.3,0.8 1.8,0 0.5,-0.8 1,-1 1.7,-1.9 0.7,-0.8 1.7,-2.4 1.8,-3.5 0.2,-1.2 1,-3 0.5,-3.5 -0.5,-0.5 0.5,-2.9 0.5,-2.9 0,0 0.7,-1.4 0,-2.7 -0.7,-1.4 0.2,-2.9 0.7,-3.5 z" />
		<polygon
   id="rect133"
   points="333,146.8 332,146.6 332.1,145.3 333.1,145.4 " />
		<polygon
   id="rect135"
   points="332.4,150.3 331.9,151.3 331,150.8 331.5,149.8 " />
		<path
   id="path137"
   inkscape:connector-curvature="0"
   d="m 330.5,137.9 -0.7,-1.5 c 0,0 0,-1.3 0.3,-2 0.3,-0.7 -0.7,-1.3 -1.2,-1.5 -0.5,-0.2 -0.3,-1.5 -0.5,-2.2 -0.2,-0.7 -1.3,-1.2 -1.3,-1.2 0,0 -0.3,-2.5 -0.3,-3 0,-0.5 -1.5,-1.2 -1,-1.7 0.5,-0.5 0.8,-1.2 1.3,-1.5 0.5,-0.3 -0.5,-2.7 0.3,-2.2 0.8,0.5 0.8,1.4 1.2,2 0.3,0.7 -0.2,3 0.7,3.5 0.8,0.5 -0.2,2.2 1.2,2.2 1.3,0 0.5,3.2 0.5,3.2 0,0 -0.3,2.4 0.5,2.5 0.8,0.2 0.3,4.2 0.3,4.2 z" />
		<path
   id="path139"
   inkscape:connector-curvature="0"
   d="m 319.7,110.6 c 0.5,0.7 1.5,1.2 1.5,1.9 0,0.7 -0.3,1.2 0.7,1.3 1,0.2 1.7,-0.2 2,0.7 0.3,0.8 0.3,2.2 0.2,2.9 -0.2,0.7 0.2,1.7 1,1.7 0.8,0 1,0.2 1,0.7 0,0.5 1,-1.9 1,-1.9 -0.8,-0.7 -1.5,-2.2 -1.5,-2.2 0,0 -0.8,-2.4 -0.8,-2.7 0,-0.3 -1.2,-0.7 -1.7,-0.8 -0.5,-0.2 -1.3,-1.7 -1.3,-1.7 z" />
		<path
   id="path141"
   inkscape:connector-curvature="0"
   d="m 321.3,109 c -0.5,-0.7 -1,-1.2 -1.7,-1.5 -0.7,-0.3 -1.2,-0.7 -1.8,-0.7 -0.7,0 -1.3,-0.7 -1,-1.5 0.3,-0.8 -0.5,-1.2 -0.5,-1.9 0,-0.7 0.5,-0.7 1.3,-0.2 0.8,0.5 0.7,0.7 1.3,1.5 0.7,0.8 1,1.7 1.7,1.5 0.7,-0.2 1.2,1.5 1.8,1 0.7,-0.5 0.5,1.2 0.5,1.2 z" />
		<path
   id="path143"
   inkscape:connector-curvature="0"
   d="m 301.9,128.1 c 0.9,0.9 -5,0.7 -5,0 0,-0.7 0.5,-3 2,-2.5 1.5,0.5 1.7,-3 1.7,-3 0,0 -1.3,0.2 -0.2,-0.5 1.2,-0.7 0,-1.7 -0.5,-2.2 -0.5,-0.5 -1,-1.4 -1,-1.4 h 2.3 c 1,-0.7 1.3,-3.9 1.3,-3.9 2,0.7 3,-0.7 3,-0.7 0,0 0.3,1 1,1.9 0.7,0.8 -1.7,1.2 -0.8,1.7 0.8,0.5 1.2,2 0.8,2.5 -0.3,0.5 -2.2,0.2 -2.2,-0.5 0,-0.7 -0.7,0.8 0,1.7 0.7,0.8 -0.8,2 -1.2,2 -0.3,0 -2.5,0.3 -0.7,1.4 1.8,1 3.8,0.5 3.8,0.5 0,0 1.5,-0.2 2,0.7 0.5,0.8 -0.2,1 -1,1 -0.8,0 -4.8,-0.3 -4.8,-0.3 0,0 -1,1.1 -0.5,1.6 z" />
		<path
   id="path145"
   inkscape:connector-curvature="0"
   d="m 291.2,129.6 c 0.8,-0.2 2.8,-0.3 3.2,0.2 0.3,0.5 -1.2,1.2 -1.2,1.2 l -2,0.3 c -0.6,-0.8 -0.8,-1.5 0,-1.7 z" />
		<path
   id="path147"
   inkscape:connector-curvature="0"
   d="m 312.7,115.5 c 1.3,-0.7 4.2,-0.7 4,-1.7 -0.2,-1 1.7,-1.3 1.7,-1.3 l 0.5,2 1.5,1 0.2,1.9 c 0,0 0.5,-0.3 -1.3,0.2 -1.8,0.5 -0.7,1.3 -0.7,1.3 l -4,0.2 -0.5,-1.7 z" />
		<path
   id="path149"
   inkscape:connector-curvature="0"
   d="m 306.2,106.3 c 1,0 -0.3,3.9 2.3,3.5 2.7,-0.3 0.2,1.2 2.2,1.3 2,0.2 1.5,-1.5 2.2,-2.7 0.7,-1.2 0.3,-1.9 -0.8,-2.2 -1.2,-0.3 -1.2,-0.3 -1.5,-1.7 -0.3,-1.3 -1.7,-1.7 -1.7,-1.7 l -0.5,-2 -2.2,1.3 -2.2,2.9 c 0,2.4 1.2,1.3 2.2,1.3 z" />
		<polygon
   id="rect153"
   points="311.5,121.1 310.6,120.6 311.1,119.6 312,120 " />
		<rect
   id="rect155"
   x="308.89999"
   y="119"
   width="1"
   height="1.2" />
		<polygon
   id="rect157"
   points="308.7,96.6 309.7,96.5 309.9,98 308.9,98.1 " />
		<rect
   id="rect159"
   x="306.89999"
   y="112.2"
   width="1"
   height="0.80000001" />
		<polygon
   id="rect161"
   points="305.9,112.1 304.2,112.2 304.1,111.2 305.8,111.1 " />
		<polygon
   id="rect163"
   points="291,127.3 290.5,128.5 289.6,128.1 290.1,126.9 " />
		<polygon
   id="rect165"
   points="287,125.2 285.3,125.4 285.2,124.4 286.9,124.2 " />
		<polygon
   id="polygon169"
   points="256.5,126.1 256.5,125.1 252.8,125.2 252.9,126.2 " />
		<polygon
   id="rect171"
   points="251.3,126.3 250.4,126.5 250,125 251,124.8 " />
		<polygon
   id="rect173"
   points="250.2,127.4 249.7,127.6 249.4,126.6 249.9,126.5 " />
		<path
   id="path175"
   inkscape:connector-curvature="0"
   d="m 258,124.7 -0.2,1.2 1.8,0.2 c 0,0 0.8,0.7 0.8,1.2 0,0.5 1.2,1 1.8,1 0.7,0 2.5,-1.4 2.5,-1.4 0,0 0.8,-2.4 0.2,-2.2 -0.7,0.2 -2,1.2 -2.2,0.2 -0.2,-1 -2.2,-0.5 -2.2,-0.5 z" />
		<path
   id="path177"
   inkscape:connector-curvature="0"
   d="m 266.3,122.9 c 0,0.5 -0.3,1.2 0.7,1.4 1,0.2 2.8,-0.7 3,0.3 0.2,1 0.2,1.7 1.5,2.2 1.3,0.5 2.2,0.7 3.2,0.7 1,0 3.2,-0.3 3.2,-0.3 0,0 2.4,0.4 2.8,0.8 1.8,1.9 3,2.4 3.5,1.5 0.5,-0.8 -0.2,-2.7 -0.3,-3.4 -0.2,-0.7 -2.5,-3.9 -3.3,-3.2 -0.8,0.7 -1,0 -2.5,0.5 -1.5,0.5 -4.7,0.2 -4.8,-0.5 -0.2,-0.7 -2.5,-1 -2.5,-1.7 0,-0.7 -1.7,-1.5 -1.5,-0.5 0.2,1 -1.2,1.5 -1.5,1.2 -0.5,-0.4 -1.5,1 -1.5,1 z" />
		<path
   id="path179"
   inkscape:connector-curvature="0"
   d="m 304.5,101.3 1.2,-3.7 c -1.7,-0.3 -1.3,-2.2 -1.3,-2.2 -0.2,-1.5 -2.5,-3.2 -3.3,-2.7 -0.8,0.5 -0.5,-3.5 -0.5,-3.5 0,0 1.5,-1 2.2,-0.5 0.7,0.5 -5.7,-8.4 -7,-7.6 -1.3,0.8 -4.3,-0.8 -4.2,-2.4 0.2,-1.5 -6,-6.6 -6,-6.6 0,0 -2,-1.3 -2.3,-0.3 -0.3,1 -1,1.7 0,2.2 1,0.5 0.8,-0.8 2,0.3 1.2,1.2 3.3,2.7 2.5,3.7 -0.8,1 -1.8,1.4 -1.8,1.4 l 1.2,1.4 h 1.8 l 0.3,2.9 c 0,0 2,1 2.5,2.2 0.5,1.2 0.5,1.9 0,2.5 -0.5,0.7 -1.5,1.9 -1.3,3 0.2,1.2 1.5,1.7 1.5,1.7 l 1.3,0.2 1,0.5 V 96 c 1.3,-0.3 3.5,1.5 3.3,2.7 -0.2,1.2 0.3,0.5 2,1.7 1.7,1.2 1.2,1.4 2.3,2.2 1.1,0.7 2.1,0.2 2.6,-1.3 z" />
		<path
   id="path181"
   inkscape:connector-curvature="0"
   d="m 277.1,78.3 c -0.2,-0.7 -0.5,-3 0.5,-2.9 1,0.2 0.3,0 1.5,0.5 1.2,0.5 1.3,-0.8 1.3,-0.8 h 1.8 l 2.3,1.9 -0.3,1.5 -1.7,0.2 c -0.8,-1.3 -2.5,-0.8 -2.2,0.3 0.3,1.2 -0.8,3.4 -1.5,3.5 -0.7,0.2 -2.8,0.2 -2.7,-0.8 0.3,-1 1,-3.4 1,-3.4 z" />
		<path
   id="path183"
   inkscape:connector-curvature="0"
   d="m 275.8,73.8 v -1.3 c 0,0 -0.2,-1.3 -1,-1.3 -0.8,0 -2.3,-1 -2,-1.7 0.3,-0.7 -2.8,-1.4 -2.8,-1.4 0,0 -2.8,-2.7 -1.8,-2.4 1,0.3 0.5,-1.2 0.5,-1.2 0,0 -2,0.3 -2.5,0.2 -0.5,-0.2 -0.3,-1.7 -0.3,-1.7 0,0 -2,-0.5 -2,0 0,0.5 0.7,0.5 1,1.5 0.3,1 0.2,2.7 1.7,3 1.5,0.3 1.8,0.7 2,1.4 0.2,0.7 2,0.8 2,0.8 l 1.3,0.7 z" />
		<polygon
   id="polygon185"
   points="256,56.4 257.8,56.6 257.3,55.2 256,54.9 " />
		<path
   id="path187"
   inkscape:connector-curvature="0"
   d="m 257.3,49.5 c -1.7,-1.3 2.3,1 2.3,1 1.3,0 2.2,1 2.2,1.5 0,0.5 1.8,0.3 1.8,0.3 l 0.2,-1.2 -1.3,-1.7 -1.2,-0.8 c 0,0 -1.8,-0.2 -1.8,-0.7 0,-0.4 -1.5,2.1 -2.2,1.6 z" />
		<path
   id="path189"
   inkscape:connector-curvature="0"
   d="m 287.9,50.5 c -0.5,1.5 -0.7,3.5 -1.5,3.5 -0.8,0 -0.5,2.2 -0.5,2.2 0,0 2.2,0 2.8,0.2 0.7,0.2 0.7,1.9 0.7,1.9 2.5,-0.2 3.5,3.2 3.2,4.1 -0.3,0.8 1,0.8 1,0.8 0,0 0,2.7 -0.3,3.4 -0.3,0.7 2.2,1.2 2.8,2.2 0.7,1 -0.3,4.4 -0.8,4.6 -0.5,0.2 1.3,0.7 1.2,1.5 -0.2,0.8 0.5,0 0.7,1.4 0.2,1.3 0.5,4.2 0.5,4.2 l 2.3,0.2 c 0.3,-2.2 4.6,-2.3 5.3,-2 2.8,1 5,5.4 5,6.4 0,1 -1.8,1.2 -1.8,1.2 l 0.3,4.9 c 2.8,0.8 5.2,4.9 4.8,5.6 -0.3,0.7 2,0.5 2,0.5 0.3,-3 3.2,-2 3.3,-1 0.2,1 0.7,3.2 0.7,3.2 l 0.8,1.5 1.2,1.2 1.8,-0.2 0.5,1 2.2,0.3 c 0,0 1.8,2 2,2.5 0.2,0.5 2.7,0.3 3.3,0.5 0.7,0.2 1.7,0.7 1.8,1.5 0.2,0.8 1.2,2.2 1.2,2.2 0,0 2,0.5 2.2,1.2 0.2,0.7 1,2.2 1,2.2 l 1.7,1.4 0.2,1.5 1.8,0.2 0.5,2 3,-0.2 1.7,-1.2 c 2.2,-1.2 3.7,-2.7 3.8,-3.4 0.2,-0.7 0.5,-3.2 2.2,-2.7 1.7,0.5 0.5,-3.7 0.5,-3.7 0,0 -2.3,-1.7 -2.2,-2.5 0.2,-0.8 -2.3,-2.5 -2.2,-3.2 0.2,-0.7 -2.2,-2 -2,-2.7 0.2,-0.7 -1.2,-2.5 -1.2,-2.5 l -2.5,-2.4 -0.3,-1.5 -2,-0.2 -4,-4.9 0.2,-1.4 -1.2,-0.2 v -1.9 l -1.2,-0.7 -1.8,-0.2 -3.7,-4 -0.3,-1.9 h -1.8 l 0.3,-3.5 c 1.2,-1.5 0.5,-4.4 0.5,-4.4 0,0 -2.3,1.2 -3.5,0.7 -1.2,-0.5 0.5,-1.7 0.5,-1.7 v -1.3 l -1,-1 c 0,0 -2.8,0.3 -3,-0.2 -0.2,-0.5 -0.7,-2.7 -0.7,-2.7 l -0.2,-2.9 -1.2,-0.5 -0.2,-1 -1.8,0.2 v -2 l -1,-0.3 -1,-0.5 -0.2,-2 -3.7,-0.2 -1.2,-1.7 -1.3,-2 -4.2,-0.3 -1,-1 -1.7,-0.3 -1.2,-0.5 -0.5,0.8 -3.2,0.2 -0.2,1 c -1.4,0.7 -8,0 -8.2,0.5 z" />
		<path
   id="path191"
   inkscape:connector-curvature="0"
   d="m 305.4,46.1 c -0.3,-1.3 3.3,-2.5 4.2,-1.5 0.8,1 3.2,1.2 3.5,6.2 0.1,1.8 -3,-1.9 -3,-1.9 l -2.5,-0.8 c -1.4,-0.3 -2.1,-1.1 -2.2,-2 z" />
		<polygon
   id="rect193"
   points="257.3,46.7 256.6,48.2 255.7,47.8 256.4,46.2 " />
		<path
   id="path195"
   inkscape:connector-curvature="0"
   d="m 248,31.6 -2.2,-2.2 v -1.9 l -0.7,-0.7 -0.7,-2.4 -2.2,-0.7 -2.2,0.8 -2.3,1.5 -2.5,0.3 -1.3,1.5 5.3,0.5 1,1.7 3.8,0.3 2.5,2.5 c 2.3,1 2.8,0 1.5,-1.2 z" />
		<path
   id="path197"
   inkscape:connector-curvature="0"
   d="m 247.7,23.3 c -0.4,-1.5 -2.5,1.9 -0.3,2.5 2.2,0.7 4.3,0 4.3,0 l 0.5,-1 8.3,0.2 c 0.7,-0.7 1,-1.7 1,-1.7 0,0 2,-0.7 2.8,-0.3 0.8,0.3 0.2,-2.4 -0.7,-2 -0.8,0.3 -2.5,0.2 -2.5,0.2 h -3 c -0.2,-1.2 -2.8,-0.7 -3,0 C 255,21.8 254,22 254,22 l -3.8,0.3 c -0.4,1 -2.3,1.7 -2.5,1 z" />
		<path
   id="path199"
   inkscape:connector-curvature="0"
   d="m 231.2,51.8 c 2.6,0.8 3.5,0.2 3.7,-0.5 0.2,-0.7 0.3,-0.8 1.3,-1 1,-0.2 -0.2,-2.2 -1.2,-2 -1,0.2 -2,-0.3 -2.2,-1.2 -0.2,-0.8 -1.8,-3 -2,-1.3 -0.2,1.7 -1.2,1.7 -1,2.9 0.3,1.1 0.8,2.9 1.4,3.1 z" />
		<path
   id="path201"
   inkscape:connector-curvature="0"
   d="m 212.1,53.7 c -0.1,-0.6 3.3,-0.7 3.8,-0.2 0.5,0.5 0.2,1.4 1.7,1.4 1.5,0 0.8,1 0.7,1.5 -0.2,0.5 -1.8,0.3 -2,-0.2 -0.2,-0.5 -2.7,-0.7 -2.7,-0.7 0,0 -1.3,-1 -1.5,-1.8 z" />
		<polygon
   id="polygon205"
   points="269.3,18.3 268.6,17.5 267.3,18.6 266.5,17.7 265.8,18.5 266.9,19.6 267.3,20 267.6,19.7 " />
		<polygon
   id="polygon207"
   points="261,13.5 259.5,14.5 258.4,13.8 257.9,14.7 259.2,15.5 259.5,15.7 259.7,15.5 261.6,14.3 " />
		<polygon
   id="polygon209"
   points="254.3,49.4 254.1,49.2 253.9,49.2 252.2,49 252.1,50 253.5,50.1 254.6,51.8 255.4,51.2 " />
		<path
   id="path211"
   inkscape:connector-curvature="0"
   d="m 199.1,96.2 0.2,1.9 h 2.5 c 1,0 -0.8,-1.2 -0.8,-1.2 0,0 -2,0.2 -1.9,-0.7 z" />
		<polygon
   id="rect213"
   points="203.3,97.1 202.3,96.3 202.9,95.5 203.9,96.3 " />
		<polygon
   id="rect215"
   points="173,65.7 172,64.7 172.7,64 173.7,65 " />
		<polygon
   id="polygon219"
   points="220.9,282.2 220.3,281.8 218.6,281 218.2,281.9 219.2,282.4 218.9,282.8 219.6,283.5 220.4,282.7 " />
		<polygon
   id="polygon221"
   points="206.9,270.1 207.4,269.7 206.8,268.9 205.8,269.8 205.3,270.2 205.8,270.6 207,271.4 207.6,270.6 " />
		<path
   id="path223"
   inkscape:connector-curvature="0"
   d="m 331.1,237.7 c -0.2,-0.9 -1.2,-1.2 -1.3,-1.2 l -0.3,1 v 0 c 0.1,0 0.2,0.1 0.3,0.2 l 0.2,0.9 c -0.1,0.1 -0.2,0.2 -0.2,0.3 l 0.7,0.7 c 0.5,-0.8 0.7,-1.3 0.6,-1.9 z" />
		<polygon
   id="polygon225"
   points="332.7,233.1 332.6,234.5 331,234.4 331.1,232.9 " />
		<path
   id="path227"
   inkscape:connector-curvature="0"
   d="m 371.1,221.4 c 0.7,-0.4 1.6,-1.3 1.5,0.6 -0.1,1.9 -0.9,1.3 -1.5,1.9 -0.6,0.6 -1,-1.9 0,-2.5 z" />
		<path
   id="path231"
   inkscape:connector-curvature="0"
   d="m 379.6,214.2 c 0,0 0,-0.2 0,-0.2 0,-0.3 -0.1,-0.7 -0.3,-1.1 l -0.9,0.5 c 0.1,0.2 0.1,0.5 0.2,0.7 0,0.3 0.1,0.6 0.3,0.8 0.2,0.1 0.4,0.2 0.7,0.1 l -0.2,-1 c 0,0.1 0.1,0.1 0.2,0.2 z" />
		<path
   id="path233"
   inkscape:connector-curvature="0"
   d="m 377.4,215 c 0.3,1 0.6,2 0.6,2.1 l 0.9,-0.4 c 0,0 -0.4,-1 -0.6,-2 z" />
		<path
   id="path235"
   inkscape:connector-curvature="0"
   d="m 373.7,219 -1,-0.1 c -0.1,0.8 0.1,1.8 0.9,1.9 l 0.2,-1 c 0,0 0,0 0,0 0,0 -0.1,-0.4 -0.1,-0.8 z" />
		<path
   id="path237"
   inkscape:connector-curvature="0"
   d="m 369.4,198.9 c -0.1,-0.3 -0.2,-0.6 -0.5,-0.7 -0.7,-0.3 -2,0.2 -2.6,0.6 l 0.6,0.8 c 0.6,-0.4 1.5,-0.6 1.6,-0.5 0,0 0,0 0,-0.1 z" />
		<path
   id="path241"
   inkscape:connector-curvature="0"
   d="m 323.3,145 c -0.7,0.7 -2.2,1 -2.2,1 l -0.5,1.9 -0.8,0.7 c 0,0 0.2,0.5 0,1.7 -0.2,1.2 -1.7,1.9 -1.7,1.9 l -0.7,0.8 c 0,0 -4,0.2 -4.5,0 -1.5,-0.7 -0.5,-2.7 0.5,-2.5 1,0.2 -0.2,-2.9 -0.2,-2.9 l 1.3,-0.2 c 0,0 0.2,-3 0.7,-3 0.5,0 -0.2,-1 -0.8,-1.5 -0.7,-0.5 -1.5,-2.2 -2.2,-2 -0.7,0.2 -3.3,0 -3.3,0 l -0.5,1 -1.8,0.3 c 0,0 0.2,1.3 -0.2,1.7 -1,1.2 -4.8,3.7 -3.2,-0.5 l 0.5,-1 v -1.5 l -3,-0.2 c 0,0 -1.5,-0.5 -1.5,-1.2 0,-0.7 -0.2,-1.5 -0.2,-1.5 l -3.5,-3.9 -4.2,-0.5 -0.3,-0.8 -2.5,-0.3 c -3,-1.5 -5.7,-0.2 -5.2,2.4 0.5,2.5 1.3,3.5 -0.3,3.5 -1.7,0 -2,-1.3 -2,-1.3 0,0 -1.3,-0.5 -1.3,0.2 0,0.7 -0.5,2 0,2.7 0.5,0.7 -0.7,1.7 -1.2,1.2 -0.5,-0.5 -1.8,-2 -1.5,-2.5 0.3,-0.5 -2.3,-3.7 0.3,-4.2 2.7,-0.5 -0.2,-2 0.8,-2.4 l 1.3,-0.7 h 1.3 l 0.8,-0.7 -2.2,-0.3 -1.3,-0.2 -2.5,-0.2 c -2.5,1.7 -3,3.7 -3,3.7 -1.3,2.5 -4.5,-1 -3.3,-2.4 1.2,-1.4 -3.7,-0.2 -4.5,0.5 -0.8,0.7 -3.3,0.3 -3.3,0.3 -0.5,1.5 -2.8,-0.2 -2.2,-1.2 0.7,-1 0.7,-1.7 0.7,-1.7 l -0.8,-0.2 -1,1.9 c -2.3,0 -3,1.3 -2.5,2.2 0.5,0.8 -0.7,-0.2 -1,1 -0.3,1.2 0.2,1.2 1.2,1.7 1,0.5 -0.5,0.5 0.2,1.3 0.7,0.8 2.7,0 1.5,1.2 -1.2,1.2 -3.5,0.7 -3.5,0.7 -0.2,1.5 -3.3,1.2 -3.7,0.7 -0.3,-0.5 -2.8,-3.5 -2.8,-3.5 l -3.2,-0.2 c -0.3,-2.4 1.5,-1.2 2.2,-3 0.7,-1.9 1,-4.9 1,-4.9 0,0 -2.7,-0.2 -2.8,0.7 -0.2,0.8 -1.8,1.4 -1.8,1.4 0,0 -1.3,0.5 -0.8,1.2 0.5,0.7 -1,1 -1,1 0,0 0.3,1.1 -0.2,1.5 -1.3,1.4 -4.7,0.2 -5.2,-0.3 l -2,-0.8 -2,-1.3 -2.3,1 -0.7,0.7 h -2.5 l -0.2,2 4.5,0.5 0.3,4.2 -1.8,-0.6 h -1.2 l -0.5,-1 -1,-0.2 v 3.7 l 1,0.8 0.8,0.8 1.7,0.2 0.3,2 4.2,0.2 0.5,0.8 2.5,0.2 4.8,4.9 -0.3,1.5 -0.8,0.5 c 0.3,1.2 -2.2,0.5 -2.2,0.5 v 1 l 1.2,0.2 1.2,0.7 1.7,-2.9 c 1.8,-1.2 2.7,0.5 2.8,1.5 0.2,1 -0.8,0.8 -0.8,0.8 v 2.4 l 1,0.3 c 1.7,2 -0.7,3.2 -0.7,3.2 l -0.5,1.7 c -0.5,1.5 -2.3,1.2 -2.3,1.2 l -0.7,1 -2,0.5 3.9,0.5 c 0.4,-1.4 1.4,-1.7 1.9,-1 0.5,0.7 0.5,1.9 0.5,1.9 l 1,0.2 -0.2,1.9 1,0.3 v 5.4 l 1.2,1.3 c 2,-0.8 2,0.5 1,1.2 -1,0.7 -0.3,3.7 -0.3,3.7 l -0.8,0.8 v 1.4 l -1,0.7 v 1.9 c -1.7,-0.8 -3.7,-0.5 -4.2,0 -1.5,-1 -4.7,-0.7 -4.7,0.2 1,1.3 -1.2,1.7 -1.2,1.7 l -1.2,1.3 c 0.8,1.7 -0.8,1.9 -0.8,1.9 v 3.2 l -2,1.9 0.2,4.4 c 0,1.2 2.5,1.3 3,0.7 0.5,-0.7 2.5,1.4 2.5,1.4 h 1.5 l 0.3,-3 -1,-0.5 v -4.9 l 1.7,-1.9 c 2,-0.7 1.3,4.4 1.3,4.9 0.2,1.9 1,1.7 1.8,1.3 1.7,-0.7 0.3,1.9 -1,1.7 -1.3,-0.2 -0.5,1.7 -0.5,1.7 l 0.8,0.3 -1.5,1.2 -1.3,1.5 -1.7,-0.5 -2,-0.2 -0.7,-1.2 -1.2,-0.2 -0.2,2.4 -0.8,1 -2,2 c 2.7,0 -0.3,1.9 -1,1.9 1.5,0.5 -0.2,2 -4,0.8 v 1.2 l -1.3,0.2 1.2,1.3 1.3,0.2 -0.5,2.9 c 0,2.2 -5.5,0.7 -6,0.2 l -0.2,3 -1,0.2 0.2,2 -0.2,2.9 1.8,-0.3 v 1.2 l 4.5,0.2 6.5,-6.9 3.8,-0.8 c 0.3,-1.7 2,0.3 2,0.3 1.7,-0.2 2,1 2,1 l 2.2,0.3 c 1.8,0.5 0.7,0.7 0.8,1.4 0.2,1 1,0.7 1,0.7 l 0.3,-2.2 1,0.2 -1,-1.2 -1.8,-0.8 -2,-0.8 c -1.3,-1.9 0.3,-1.5 1.7,-1.3 h 2.2 c 0,0 2.5,3.4 2.5,4.2 0,0.8 1.2,1 1.2,1 l 1.5,-0.2 0.5,1.2 h 1.5 l 0.5,1 h 3 l 0.2,-1.5 -2.8,-0.5 -0.2,-1.7 -2,-0.5 c -0.7,-2.9 0.5,-3.7 1.3,-2.4 l 1,0.2 -0.3,-2.5 1.2,-0.3 -0.3,-3.5 -1,-0.3 v -1.2 l 4.2,0.2 c -0.3,-2.2 0.2,-3.2 0.2,-3.2 h 1.2 l 0.2,0.8 5.1,0.5 3.6,-4.1 c -0.2,-0.3 0.4,-0.5 0,-0.9 -0.5,-0.5 -1.2,0 -2,-0.5 -0.8,-0.5 0,-3.4 -0.2,-4 -0.2,-0.7 2.8,-1.7 2.3,-0.2 -0.5,1.5 0,2.2 0,2.2 2.2,-2 4,0.2 3.8,0.7 -0.2,0.5 1.2,1 2,0.5 0.8,-0.5 1.8,1.5 1.5,2.5 -0.3,1 -3.3,0.8 -3.5,-0.2 -0.2,-1 -0.7,-0.7 -1,-0.2 -0.3,0.5 -1.8,0.8 -2.7,0.3 -0.2,-0.1 -0.2,-0.2 -0.3,-0.3 l -3.6,4.1 h 0.2 c 2,1.2 1,2.7 0.3,3 -0.7,0.3 -1.8,0.3 -1.8,0.3 l -0.3,0.7 -4.3,0.3 -0.3,1.7 c -2.2,-0.3 -3,2 -2.5,3.2 0.5,1.2 0,2.2 0,2.2 l 1.8,0.8 2.3,-0.7 c 0.3,-1.7 1.8,-2 3.2,-3 1.3,-1 3.5,1.9 2.8,3.2 -0.7,1.3 -0.7,1.9 -0.7,1.9 l 0.2,1.5 -1.7,0.7 -1.3,0.7 -0.2,0.8 h -4.5 l -0.8,0.8 -2.2,0.2 -0.7,1 -1.5,0.2 c 0,0 -2.5,1.2 -1.5,2.5 1,1.4 -4.2,1.2 -5.3,-0.7 -0.3,1.7 -2.2,0.2 -2.2,0.2 l -1.8,-0.5 -0.2,-2.5 c -0.3,-1.7 -3.5,-1.7 -3.3,-0.5 0.2,1.2 -6,0.5 -6,0.5 l -2,1 -1.8,1.1 -0.2,0.8 -3,0.3 -1.3,0.7 -0.5,-1 h -1.3 l -1.3,1.9 c -3.5,0.2 -6.8,2.2 -6.5,3 0.3,0.8 -1.3,1.7 -1.3,1.7 l -1.5,0.5 -1,1.5 -2,0.7 -0.3,3.5 -1,0.7 v 1.5 l -1.2,0.3 v 0.8 l -1.7,0.2 1,2.5 1.3,0.7 c 2.3,0.3 1.3,3.2 1.3,3.2 l 1.3,0.2 0.7,1.9 1.3,2.7 c 0.5,2 2,1.5 2.7,1.4 0.7,-0.2 1.3,2 1.3,2 l 6.6,0.2 c 0,0 -0.3,0.7 0.8,1 1.2,0.3 8.8,0.7 9.1,0.2 -0.3,-1.5 4.2,-1.9 6,-0.5 1.8,1.3 4.3,0.5 4.3,0.5 l 2.5,3 1.7,3.7 2.8,0.8 2,0.5 0.7,2.9 1.5,0.2 0.5,1.9 c 1.8,1.3 -0.5,4.2 -0.5,4.2 v 3.7 l 1.3,0.7 -0.2,1.4 2.2,2.2 2.5,0.2 6.3,6.7 5,1.5 0.8,2.7 1.3,-0.2 1,-0.8 4,-0.2 2,-1.9 2.2,-0.3 18.5,-15.7 -1.7,-1 v -3.7 c 3,-2.2 3.2,-6.1 0.3,-6.4 -2.1,-0.3 -1.2,-2.5 0.8,-2.9 l 1.2,-0.5 v -1.5 l 3.8,-3.5 V 256 l -8.3,-6.9 c -3.7,-1.3 0,-9.4 2.5,-9.3 2.5,0.2 -0.2,-12.5 -0.2,-12.5 l -1.3,-0.7 0.3,-4.1 h -1.8 l -3,3.9 -0.8,2.7 c -0.3,3.5 -10.6,2.9 -11.1,2.4 -0.5,-0.5 -4,-2 -4,-2 0,0 -2.7,-2.2 -3.2,-1.5 -0.5,0.7 -2.8,-0.8 -2.8,-0.3 0,0.5 -2.2,-1.2 -2.2,-1.2 l -3.3,-1.2 2.5,-0.5 -0.5,-2 4.3,2.2 c 0.5,0.7 2.7,0.5 2.7,0.5 l 0.7,0.8 c 0,0 1.3,-0.2 2.2,0.8 0.8,1 5.2,0.2 5.2,0.2 l 1.2,1 1.8,0.7 5.2,0.2 0.2,-3.2 1,-1 -0.2,-2 1.2,-1 v -1.7 l 1,-0.3 0.2,-3.7 0.8,-0.2 V 208 l -2.5,-2.4 c -0.2,0.8 -2.8,0.8 -2.8,0.8 0,0 -0.7,1.2 -1.2,1.2 -0.5,0 0.7,1.5 0.3,2.5 -0.3,1 -1.7,1 -1.7,1 l -2.5,0.7 -0.7,0.8 h -2.7 l -0.3,-2.2 3,-0.8 1.7,-0.8 0.8,-1.7 c 0.2,-1.7 2.2,-1.5 2.2,-1.5 0,0 3.8,-3.2 4,-4.7 0.2,-1.5 1.5,-5.7 3.8,-5.7 h 4.3 c 1.7,-0.7 1.2,-2.9 1.2,-2.9 l 2.2,-0.3 0.3,1.2 c 0,0 3,0.3 3.3,-0.2 0.3,-0.5 1,-1.7 1.8,-1.2 0.8,0.5 3.5,-1.2 3.5,-1.2 0.2,-1.2 4.3,-0.7 4.3,-0.7 l 0.5,-1.5 c 0,0 -2.8,-3.9 -3.3,-3.9 -0.5,0 -3.2,-2.4 -3.5,-1.5 -2.7,-0.7 -2.5,-4.4 -2.5,-4.4 l -1,-2.4 c 0,-1.4 -2.5,-4.2 -3,-3.9 -2.5,-1.9 -0.7,-4 0,-4.2 0.7,-0.2 2.3,-2.5 2.3,-2.5 l 0.8,-2.4 2.8,-0.8 0.3,-2.2 -1.5,-0.2 c 0,0 1.7,-3 2.5,-3 0.8,0 6.3,0 6.8,-0.3 0.5,-0.3 1.5,-3 1.5,-3.5 0,-0.5 1.3,-0.7 1.8,-0.8 0.5,-0.2 1.7,-1.5 2,-2.2 0.9,-1.7 -0.2,-5.9 -0.9,-5.2 z" />
		<path
   id="path245"
   inkscape:connector-curvature="0"
   d="m 231.2,205.8 c 0.2,-0.2 0.5,0.8 1,0.6 0.5,-0.1 0.7,0.9 0.2,0.9 -0.5,0 -0.5,0.6 -0.5,0.9 0,0.3 0,0.9 -0.4,1.3 -0.4,0.4 -0.7,0.1 -1.2,-0.1 -0.5,-0.3 -0.7,-0.3 -1.4,-0.3 -0.6,0 -0.1,1 -0.1,1 0,0 -2.6,-0.1 -2.1,-0.5 0.5,-0.4 1,-0.5 0.6,-0.8 -0.4,-0.3 0,-0.5 0,-1 0,-0.5 1.2,-0.3 0.9,-0.6 -0.4,-0.4 0,-1.8 0.6,-1 l 0.4,-0.9 c -0.4,-0.4 -0.1,-0.5 -0.9,-0.8 -0.7,-0.3 -0.1,-1.8 -0.1,-1.8 l 0.1,-1 c 0.2,-1.3 2.7,-1.4 2.9,-0.3 0.1,1.1 0,1.9 0,1.9 l 0.7,0.3 c 0,0 -0.1,0.8 -0.7,0.8 -0.6,0 0,0.4 -0.4,0.8 z" />
		<path
   id="path247"
   inkscape:connector-curvature="0"
   d="m 223,207.1 c 0.4,-0.8 1.2,-4 2.2,-3 1,1 1.6,0 1.6,0 0,0 0.5,0.5 0.2,1.5 -0.2,1 -0.5,2 -1.1,2.2 -0.6,0.1 -1.1,0.5 -1.9,0.6 -0.6,0.1 -1,-1.3 -1,-1.3 z" />
	</g>
</g>
<rect
   style="opacity:1;fill:#ffffff;fill-opacity:0.00423728;stroke-width:0.88657045"
   id="rect434"
   width="469.48849"
   height="52.717331"
   x="0"
   y="0"
   ry="18.147907" /><rect
   style="opacity:1;fill:#ffffff;fill-opacity:1"
   id="rect436"
   width="13.104415"
   height="0.62401974"
   x="366.92361"
   y="15.006371" /></svg>