<?xml version="1.0" encoding="UTF-8" standalone="no"?>
<svg
   xmlns:dc="http://purl.org/dc/elements/1.1/"
   xmlns:cc="http://creativecommons.org/ns#"
   xmlns:rdf="http://www.w3.org/1999/02/22-rdf-syntax-ns#"
   xmlns:svg="http://www.w3.org/2000/svg"
   xmlns="http://www.w3.org/2000/svg"
   xmlns:sodipodi="http://sodipodi.sourceforge.net/DTD/sodipodi-0.dtd"
   xmlns:inkscape="http://www.inkscape.org/namespaces/inkscape"
   data-name="Layer 1"
   viewBox="0 0 60 60"
   x="0px"
   y="0px"
   version="1.1"
   id="svg34"
   sodipodi:docname="noun_politics_3338221.svg"
   width="60"
   height="60"
   inkscape:version="0.92.5 (2060ec1f9f, 2020-04-08)">
  <metadata
     id="metadata40">
    <rdf:RDF>
      <cc:Work
         rdf:about="">
        <dc:format>image/svg+xml</dc:format>
        <dc:type
           rdf:resource="http://purl.org/dc/dcmitype/StillImage" />
      </cc:Work>
    </rdf:RDF>
  </metadata>
  <defs
     id="defs38" />
  <sodipodi:namedview
     pagecolor="#ffffff"
     bordercolor="#666666"
     borderopacity="1"
     objecttolerance="10"
     gridtolerance="10"
     guidetolerance="10"
     inkscape:pageopacity="0"
     inkscape:pageshadow="2"
     inkscape:window-width="1920"
     inkscape:window-height="1052"
     id="namedview36"
     showgrid="false"
     inkscape:zoom="8.34386"
     inkscape:cx="46.645183"
     inkscape:cy="20.707572"
     inkscape:window-x="0"
     inkscape:window-y="0"
     inkscape:window-maximized="1"
     inkscape:current-layer="svg34" />
  <title
     id="title2">politics- government- diplomacy-people- policy</title>
  <circle
     cx="30"
     cy="5"
     r="5"
     id="circle4" />
  <path
     d="m 18,20 h 24 c 0,-3.98 -3.227,-8 -7.207,-8 H 25.207 C 21.227,12 18,16.02 18,20 Z"
     id="path6"
     inkscape:connector-curvature="0" />
  <path
     d="M 0,60 H 12 A 4,4 0 0 0 8,56 H 4 a 4,4 0 0 0 -4,4 z"
     id="path8"
     inkscape:connector-curvature="0" />
  <circle
     cx="6"
     cy="53"
     r="2"
     id="circle10" />
  <path
     d="m 24,60 h 12 a 4,4 0 0 0 -4,-4 h -4 a 4,4 0 0 0 -4,4 z"
     id="path12"
     inkscape:connector-curvature="0" />
  <circle
     cx="30"
     cy="53"
     r="2"
     id="circle14" />
  <path
     d="m 56,56 h -4 a 4,4 0 0 0 -4,4 h 12 a 4,4 0 0 0 -4,-4 z"
     id="path16"
     inkscape:connector-curvature="0" />
  <circle
     cx="54"
     cy="53"
     r="2"
     id="circle18" />
  <path
     d="m 12,54 h 12 a 4,4 0 0 0 -4,-4 h -4 a 4,4 0 0 0 -4,4 z"
     id="path20"
     inkscape:connector-curvature="0" />
  <circle
     cx="18"
     cy="47"
     r="2"
     id="circle22" />
  <path
     d="m 36,54 h 12 a 4,4 0 0 0 -4,-4 h -4 a 4,4 0 0 0 -4,4 z"
     id="path24"
     inkscape:connector-curvature="0" />
  <circle
     cx="42"
     cy="47"
     r="2"
     id="circle26" />
  <path
     d="M 51,22 V 14 A 5,5 0 0 0 47.891,9.377 1.992,1.992 0 0 0 46,8 h -2 a 2,2 0 0 0 0,4 h 2 A 1.992,1.992 0 0 0 47.439,11.384 2.99,2.99 0 0 1 49,14 v 8 H 11 V 14 A 2.99,2.99 0 0 1 12.561,11.384 1.992,1.992 0 0 0 14,12 h 2 A 2,2 0 0 0 16,8 H 14 A 1.992,1.992 0 0 0 12.109,9.377 5,5 0 0 0 9,14 v 8 H 3 L 0,32 H 60 L 57,22 Z"
     id="path28"
     inkscape:connector-curvature="0" />
</svg>
